<svg width="120" height="120" viewBox="0 0 120 120" fill="none" xmlns="http://www.w3.org/2000/svg">
<rect width="120" height="120" rx="18" fill="#F9F9F9"/>
<path d="M60.5 54.25C62.5711 54.25 64.25 52.5711 64.25 50.5C64.25 48.4289 62.5711 46.75 60.5 46.75C58.4289 46.75 56.75 48.4289 56.75 50.5C56.75 52.5711 58.4289 54.25 60.5 54.25Z" fill="black"/>
<path d="M70.5 40.5H66.5375L64.9875 38.8125C64.7546 38.5567 64.4708 38.3524 64.1544 38.2125C63.838 38.0726 63.4959 38.0002 63.15 38H57.85C57.15 38 56.475 38.3 56 38.8125L54.4625 40.5H50.5C49.125 40.5 48 41.625 48 43V58C48 59.375 49.125 60.5 50.5 60.5H70.5C71.875 60.5 73 59.375 73 58V43C73 41.625 71.875 40.5 70.5 40.5ZM60.5 56.75C57.05 56.75 54.25 53.95 54.25 50.5C54.25 47.05 57.05 44.25 60.5 44.25C63.95 44.25 66.75 47.05 66.75 50.5C66.75 53.95 63.95 56.75 60.5 56.75Z" fill="black"/>
</svg>
