<svg width="128" height="87" viewBox="0 0 128 87" fill="none" xmlns="http://www.w3.org/2000/svg">
<path d="M18.08 26H14.024L6.8 12.56H6.704C6.72 12.912 6.736 13.288 6.752 13.688C6.768 14.072 6.784 14.472 6.8 14.888C6.832 15.288 6.856 15.696 6.872 16.112C6.888 16.528 6.896 16.944 6.896 17.36V26H4.016V8.864H8.048L15.248 22.208H15.344C15.328 21.888 15.312 21.544 15.296 21.176C15.28 20.792 15.264 20.4 15.248 20C15.232 19.6 15.216 19.192 15.2 18.776C15.184 18.36 15.176 17.96 15.176 17.576V8.864H18.08V26ZM28.0138 26H20.8857V24.248L22.8538 23.48V11.408L20.8857 10.616V8.864H28.0138V10.616L26.0698 11.408V23.48L28.0138 24.248V26ZM43.6199 26H39.9479L35.5319 18.416L34.0679 19.688V26H30.8519V8.864H34.0679V16.928C34.3559 16.528 34.6519 16.12 34.9559 15.704C35.2759 15.288 35.5959 14.872 35.9159 14.456L39.9479 8.864H43.5479L37.8599 16.4L43.6199 26ZM54.881 26H45.641V8.864H54.881V11.432H48.857V15.8H54.497V18.368H48.857V23.408H54.881V26Z" fill="white"/>
<path d="M2.24 63.848C1.808 63.848 1.432 63.816 1.112 63.752C0.792 63.704 0.512 63.648 0.272 63.584V61.016C0.512 61.08 0.768 61.136 1.04 61.184C1.296 61.232 1.576 61.256 1.88 61.256C2.312 61.256 2.68 61.176 2.984 61.016C3.304 60.856 3.544 60.56 3.704 60.128C3.88 59.696 3.968 59.08 3.968 58.28V41.864H7.208V58.208C7.208 59.552 7 60.632 6.584 61.448C6.168 62.28 5.584 62.888 4.832 63.272C4.096 63.656 3.232 63.848 2.24 63.848ZM24.1484 52.952C24.1484 54.136 23.9004 55.208 23.4044 56.168C22.9244 57.112 22.1884 57.864 21.1964 58.424C20.2204 58.968 18.9964 59.24 17.5244 59.24C15.4124 59.24 13.7964 58.664 12.6764 57.512C11.5724 56.344 11.0204 54.808 11.0204 52.904V41.864H14.2364V52.592C14.2364 53.984 14.5164 55.008 15.0764 55.664C15.6364 56.304 16.4764 56.624 17.5964 56.624C18.3804 56.624 19.0124 56.472 19.4924 56.168C19.9884 55.864 20.3484 55.408 20.5724 54.8C20.7964 54.176 20.9084 53.432 20.9084 52.568V41.864H24.1484V52.952ZM37.7114 54.32C37.7114 55.328 37.4794 56.2 37.0154 56.936C36.5674 57.672 35.8954 58.24 34.9994 58.64C34.1194 59.04 33.0314 59.24 31.7354 59.24C31.0954 59.24 30.5034 59.2 29.9594 59.12C29.4154 59.056 28.9034 58.952 28.4234 58.808C27.9594 58.664 27.5114 58.488 27.0794 58.28V55.4C27.7994 55.72 28.5754 56.016 29.4074 56.288C30.2554 56.544 31.0794 56.672 31.8794 56.672C32.4874 56.672 32.9834 56.584 33.3674 56.408C33.7514 56.216 34.0314 55.96 34.2074 55.64C34.3994 55.304 34.4954 54.92 34.4954 54.488C34.4954 54.008 34.3754 53.6 34.1354 53.264C33.9114 52.928 33.5594 52.616 33.0794 52.328C32.5994 52.04 31.9754 51.744 31.2074 51.44C30.6634 51.2 30.1434 50.944 29.6474 50.672C29.1674 50.384 28.7434 50.04 28.3754 49.64C28.0234 49.24 27.7434 48.768 27.5354 48.224C27.3434 47.68 27.2474 47.04 27.2474 46.304C27.2474 45.328 27.4794 44.488 27.9434 43.784C28.4074 43.08 29.0554 42.544 29.8874 42.176C30.7194 41.808 31.6874 41.624 32.7914 41.624C33.7194 41.624 34.5674 41.72 35.3354 41.912C36.1194 42.104 36.8554 42.376 37.5434 42.728L36.5354 45.2C35.8794 44.896 35.2314 44.656 34.5914 44.48C33.9674 44.304 33.3354 44.216 32.6954 44.216C32.1994 44.216 31.7834 44.304 31.4474 44.48C31.1114 44.64 30.8554 44.872 30.6794 45.176C30.5194 45.48 30.4394 45.832 30.4394 46.232C30.4394 46.696 30.5514 47.088 30.7754 47.408C30.9994 47.728 31.3514 48.032 31.8314 48.32C32.3114 48.592 32.9354 48.912 33.7034 49.28C34.5514 49.664 35.2714 50.072 35.8634 50.504C36.4714 50.936 36.9274 51.456 37.2314 52.064C37.5514 52.672 37.7114 53.424 37.7114 54.32ZM46.7214 59H43.4814V44.456H39.0174V41.864H51.1614V44.456H46.7214V59ZM72.7177 50.264C72.7177 52.184 72.3737 53.792 71.6857 55.088C71.0137 56.384 70.0377 57.36 68.7577 58.016C67.4777 58.672 65.9417 59 64.1497 59H59.4457V41.864H64.6297C66.2937 41.864 67.7337 42.184 68.9497 42.824C70.1657 43.464 71.0937 44.408 71.7337 45.656C72.3897 46.888 72.7177 48.424 72.7177 50.264ZM69.3577 50.36C69.3577 49 69.1737 47.88 68.8057 47C68.4537 46.12 67.9177 45.472 67.1977 45.056C66.4937 44.624 65.6217 44.408 64.5817 44.408H62.6617V56.432H64.2217C65.9497 56.432 67.2377 55.928 68.0857 54.92C68.9337 53.896 69.3577 52.376 69.3577 50.36ZM90.5834 50.408C90.5834 51.736 90.4314 52.944 90.1274 54.032C89.8234 55.104 89.3514 56.032 88.7114 56.816C88.0874 57.6 87.2954 58.2 86.3354 58.616C85.3754 59.032 84.2474 59.24 82.9514 59.24C81.6394 59.24 80.5034 59.032 79.5434 58.616C78.5834 58.184 77.7914 57.584 77.1674 56.816C76.5434 56.032 76.0714 55.096 75.7514 54.008C75.4474 52.92 75.2954 51.712 75.2954 50.384C75.2954 48.608 75.5674 47.064 76.1114 45.752C76.6714 44.44 77.5194 43.424 78.6554 42.704C79.7914 41.968 81.2314 41.6 82.9754 41.6C84.7034 41.6 86.1274 41.968 87.2474 42.704C88.3674 43.424 89.1994 44.448 89.7434 45.776C90.3034 47.088 90.5834 48.632 90.5834 50.408ZM78.7034 50.408C78.7034 51.704 78.8474 52.816 79.1354 53.744C79.4234 54.672 79.8794 55.384 80.5034 55.88C81.1434 56.376 81.9594 56.624 82.9514 56.624C83.9434 56.624 84.7514 56.376 85.3754 55.88C85.9994 55.384 86.4554 54.672 86.7434 53.744C87.0314 52.816 87.1754 51.704 87.1754 50.408C87.1754 48.472 86.8394 46.952 86.1674 45.848C85.5114 44.744 84.4394 44.192 82.9514 44.192C81.9594 44.192 81.1434 44.44 80.5034 44.936C79.8794 45.432 79.4234 46.144 79.1354 47.072C78.8474 48 78.7034 49.112 78.7034 50.408ZM105.662 59H98.5342V57.248L100.502 56.48V44.408L98.5342 43.616V41.864H105.662V43.616L103.718 44.408V56.48L105.662 57.248V59ZM114.596 59H111.356V44.456H106.892V41.864H119.036V44.456H114.596V59Z" fill="#FB9BBE"/>
<path d="M4.116 74.868C2.424 74.868 1.2 75.912 1.2 77.424C1.2 78.948 2.424 79.992 4.116 79.992C5.808 79.992 7.02 78.948 7.02 77.424C7.02 75.912 5.808 74.868 4.116 74.868ZM4.116 75.732C5.232 75.732 6.048 76.416 6.048 77.424C6.048 78.432 5.232 79.128 4.116 79.128C2.988 79.128 2.172 78.432 2.172 77.424C2.172 76.416 2.988 75.732 4.116 75.732ZM8.436 74.076V84.948H9.432V74.076H8.436ZM0.792 82.572C2.724 82.572 5.376 82.56 7.812 82.092L7.728 81.36C5.364 81.732 2.628 81.744 0.648 81.744L0.792 82.572ZM14.2671 74.652V75.756C14.2671 77.412 13.2111 78.876 11.5791 79.476L12.1071 80.28C13.9191 79.572 15.0951 77.844 15.0951 75.756V74.652H14.2671ZM14.4471 74.652V75.828C14.4471 77.712 15.6351 79.32 17.3751 79.968L17.9031 79.188C16.3431 78.648 15.2631 77.292 15.2631 75.828V74.652H14.4471ZM19.0551 74.088V80.664H20.0511V74.088H19.0551ZM19.7751 76.884V77.724H21.6591V76.884H19.7751ZM16.5951 80.964C14.3751 80.964 13.0311 81.696 13.0311 82.944C13.0311 84.192 14.3751 84.912 16.5951 84.912C18.8151 84.912 20.1591 84.192 20.1591 82.944C20.1591 81.696 18.8151 80.964 16.5951 80.964ZM16.5951 81.756C18.2031 81.756 19.1871 82.188 19.1871 82.944C19.1871 83.7 18.2031 84.132 16.5951 84.132C14.9871 84.132 14.0031 83.7 14.0031 82.944C14.0031 82.188 14.9871 81.756 16.5951 81.756ZM22.6661 80.508V81.324H32.5061V80.508H22.6661ZM27.0581 80.892V84.936H28.0421V80.892H27.0581ZM23.9021 74.52V79.212H31.2461V74.52H30.2621V76.008H24.8981V74.52H23.9021ZM24.8981 76.812H30.2621V78.408H24.8981V76.812ZM41.6612 74.076V84.948H42.6452V74.076H41.6612ZM39.4052 78.168V78.996H41.8052V78.168H39.4052ZM34.2092 81.516V82.344H35.0372C37.1012 82.344 38.4212 82.284 39.9812 82.008L39.8852 81.192C38.3612 81.48 37.0772 81.516 35.0372 81.516H34.2092ZM34.2092 75.072V81.804H35.1932V75.9H39.2252V75.072H34.2092ZM34.9412 78.12V78.924H38.7572V78.12H34.9412ZM55.7574 74.1V82.044H56.7654V74.1H55.7574ZM49.7934 83.88V84.696H57.0894V83.88H49.7934ZM49.7934 81.312V84.264H50.7774V81.312H49.7934ZM50.6934 74.688V75.792C50.6934 77.472 49.6134 79.056 47.9814 79.692L48.4974 80.496C50.3214 79.752 51.5214 77.904 51.5214 75.792V74.688H50.6934ZM50.8734 74.688V75.792C50.8734 77.856 52.0734 79.596 53.8734 80.292L54.4014 79.488C52.7814 78.9 51.6894 77.424 51.6894 75.792V74.688H50.8734ZM59.3565 74.532V79.272H64.3725V74.532H63.4005V76.092H60.3405V74.532H59.3565ZM60.3405 76.872H63.4005V78.468H60.3405V76.872ZM66.3285 74.088V79.68H67.3245V74.088H66.3285ZM66.8925 76.416V77.244H68.9205V76.416H66.8925ZM60.4365 80.208V81H66.3525V82.092H60.4605V84.468H61.4445V82.836H67.3245V80.208H60.4365ZM60.4605 84.024V84.816H67.7205V84.024H60.4605ZM77.4756 74.088V84.936H78.4596V74.088H77.4756ZM78.1476 78.552V79.392H80.0796V78.552H78.1476ZM72.2796 75.252V75.36C72.2796 77.82 71.6796 80.076 69.8916 81.936L70.6956 82.5C72.6396 80.4 73.1916 77.868 73.1916 75.252H72.2796ZM70.2396 75.252V76.08H72.6516V75.252H70.2396ZM75.2316 75.252V75.348C75.2316 77.856 74.8236 80.544 72.9876 82.668L73.7916 83.22C75.7836 80.856 76.1556 77.88 76.1556 75.252H75.2316ZM73.5396 75.252V76.08H75.6396V75.252H73.5396ZM83.8586 75.636V77.4C83.8586 79.272 82.5506 81.312 80.9786 82.056L81.5546 82.848C83.2826 81.996 84.6626 79.692 84.6626 77.4V75.636H83.8586ZM84.0506 75.636V77.4C84.0506 79.656 85.4426 81.768 87.1946 82.584L87.7586 81.792C86.1626 81.108 84.8546 79.236 84.8546 77.4V75.636H84.0506ZM81.3386 75.192V76.032H87.3986V75.192H81.3386ZM88.8626 74.088V84.936H89.8586V74.088H88.8626ZM102.563 74.1V82.236H103.559V74.1H102.563ZM103.247 77.652V78.492H105.167V77.652H103.247ZM95.1709 75.408V76.212H101.579V75.408H95.1709ZM98.3749 76.812C96.8269 76.812 95.7709 77.616 95.7709 78.84C95.7709 80.052 96.8269 80.856 98.3749 80.856C99.9109 80.856 100.967 80.052 100.967 78.84C100.967 77.616 99.9109 76.812 98.3749 76.812ZM98.3749 77.592C99.3469 77.592 100.019 78.084 100.019 78.84C100.019 79.584 99.3469 80.076 98.3749 80.076C97.3909 80.076 96.7189 79.584 96.7189 78.84C96.7189 78.084 97.3909 77.592 98.3749 77.592ZM97.8709 74.088V75.828H98.8669V74.088H97.8709ZM96.8029 83.88V84.696H104.051V83.88H96.8029ZM96.8029 81.588V84.228H97.7989V81.588H96.8029ZM111.298 77.148V77.964H114.418V77.148H111.298ZM114.106 74.1V82.128H115.102V74.1H114.106ZM108.13 83.88V84.696H115.366V83.88H108.13ZM108.13 81.348V84.3H109.126V81.348H108.13ZM106.714 74.808V80.28H111.61V74.808H110.638V76.728H107.698V74.808H106.714ZM107.698 77.508H110.638V79.464H107.698V77.508ZM121.617 78.3V79.128H123.669V78.3H121.617ZM125.481 74.088V84.936H126.441V74.088H125.481ZM123.333 74.316V84.396H124.281V74.316H123.333ZM119.661 74.988C118.257 74.988 117.357 76.44 117.357 78.768C117.357 81.096 118.257 82.548 119.661 82.548C121.065 82.548 121.977 81.096 121.977 78.768C121.977 76.44 121.065 74.988 119.661 74.988ZM119.661 75.912C120.525 75.912 121.065 77.016 121.065 78.768C121.065 80.52 120.525 81.624 119.661 81.624C118.809 81.624 118.269 80.52 118.269 78.768C118.269 77.016 118.809 75.912 119.661 75.912Z" fill="white" fill-opacity="0.6"/>
</svg>
