<svg width="305" height="26" viewBox="0 0 305 26" fill="none" xmlns="http://www.w3.org/2000/svg">
<path d="M10.944 5.592V20.456H13.072V5.592H10.944ZM8.352 10.776V12.488H11.44V10.776H8.352ZM4.064 7.944V9.256C4.064 12.008 2.896 14.84 0.416 16.008L1.664 17.688C4.432 16.328 5.744 12.872 5.744 9.256V7.944H4.064ZM4.56 7.944V9.256C4.56 12.76 5.84 16.072 8.624 17.384L9.856 15.72C7.376 14.6 6.224 11.864 6.224 9.256V7.944H4.56ZM1.024 7.032V8.744H9.264V7.032H1.024ZM20.9908 14.104V16.28H23.1028V14.104H20.9908ZM15.3588 12.904V14.584H28.7508V12.904H15.3588ZM16.8468 15.848V17.528H25.0068V20.408H27.1348V15.848H16.8468ZM20.9908 5.624V7.8H23.1028V5.624H20.9908ZM20.8628 7.96V8.264C20.8628 9.4 19.4868 10.568 15.9188 10.792L16.5588 12.376C20.5908 12.088 22.7348 10.52 22.7348 8.264V7.96H20.8628ZM21.3588 7.96V8.264C21.3588 10.52 23.4868 12.088 27.5348 12.376L28.1748 10.792C24.6068 10.568 23.2308 9.4 23.2308 8.264V7.96H21.3588ZM16.6388 6.952V8.6H27.4708V6.952H16.6388ZM32.7815 13V16.104H34.7975V13H32.7815ZM30.1575 17.528C32.0615 17.528 35.0695 17.464 37.4215 17.032L37.3095 15.48C35.0375 15.768 31.8855 15.816 29.9015 15.816L30.1575 17.528ZM40.9575 5.608V20.424H42.9895V5.608H40.9575ZM39.1655 11.496V13.208H41.5495V11.496H39.1655ZM37.8855 5.848V19.752H39.8695V5.848H37.8855ZM30.5095 11.608V13.304H36.9895V11.608H30.5095ZM30.5095 6.952V12.12H32.6055V8.648H36.8455V6.952H30.5095ZM48.3643 7.944V9.608C48.3643 12.12 47.1643 14.856 44.6842 15.96L45.8843 17.64C48.6683 16.376 50.0603 13.032 50.0603 9.608V7.944H48.3643ZM48.8443 7.944V9.608C48.8443 12.904 50.2203 16.056 53.0363 17.272L54.1883 15.592C51.7083 14.568 50.5243 12.008 50.5243 9.608V7.944H48.8443ZM45.2763 7.032V8.776H53.5803V7.032H45.2763ZM54.9563 5.608V20.424H57.1003V5.608H54.9563Z" fill="black" fill-opacity="0.8"/>
<path d="M184.616 7.192V16.616H191.272V7.192H184.616ZM189.976 8.264V15.544H185.912V8.264H189.976ZM194.296 5.768V20.264H195.624V5.768H194.296ZM209.031 5.8V16.392H210.375V5.8H209.031ZM201.079 18.84V19.928H210.807V18.84H201.079ZM201.079 15.416V19.352H202.391V15.416H201.079ZM202.279 6.584V8.056C202.279 10.296 200.839 12.408 198.663 13.256L199.351 14.328C201.783 13.336 203.383 10.872 203.383 8.056V6.584H202.279ZM202.519 6.584V8.056C202.519 10.808 204.119 13.128 206.519 14.056L207.223 12.984C205.063 12.2 203.607 10.232 203.607 8.056V6.584H202.519ZM216.838 8.248V8.872C216.838 10.824 215.398 12.584 213.27 13.272L213.91 14.312C216.326 13.496 217.926 11.384 217.926 8.872V8.248H216.838ZM217.078 8.248V8.872C217.078 11.24 218.742 13.192 221.174 13.944L221.782 12.904C219.654 12.28 218.166 10.664 218.166 8.872V8.248H217.078ZM213.638 7.528V8.6H221.35V7.528H213.638ZM216.838 5.72V7.912H218.166V5.72H216.838ZM220.918 9.896V11H224.182V9.896H220.918ZM223.798 5.784V14.536H225.126V5.784H223.798ZM220.374 14.92C217.366 14.92 215.542 15.896 215.542 17.576C215.542 19.24 217.366 20.216 220.374 20.216C223.366 20.216 225.19 19.24 225.19 17.576C225.19 15.896 223.366 14.92 220.374 14.92ZM220.374 15.96C222.55 15.96 223.878 16.552 223.878 17.576C223.878 18.584 222.55 19.176 220.374 19.176C218.182 19.176 216.87 18.584 216.87 17.576C216.87 16.552 218.182 15.96 220.374 15.96Z" fill="black" fill-opacity="0.8"/>
<path d="M286.312 5.8V16.392H287.656V5.8H286.312ZM278.36 18.84V19.928H288.088V18.84H278.36ZM278.36 15.416V19.352H279.672V15.416H278.36ZM279.56 6.584V8.056C279.56 10.296 278.12 12.408 275.944 13.256L276.632 14.328C279.064 13.336 280.664 10.872 280.664 8.056V6.584H279.56ZM279.8 6.584V8.056C279.8 10.808 281.4 13.128 283.8 14.056L284.504 12.984C282.344 12.2 280.888 10.232 280.888 8.056V6.584H279.8ZM294.119 8.248V8.872C294.119 10.824 292.679 12.584 290.551 13.272L291.191 14.312C293.607 13.496 295.207 11.384 295.207 8.872V8.248H294.119ZM294.359 8.248V8.872C294.359 11.24 296.023 13.192 298.455 13.944L299.063 12.904C296.935 12.28 295.447 10.664 295.447 8.872V8.248H294.359ZM290.919 7.528V8.6H298.631V7.528H290.919ZM294.119 5.72V7.912H295.447V5.72H294.119ZM298.199 9.896V11H301.463V9.896H298.199ZM301.079 5.784V14.536H302.407V5.784H301.079ZM297.655 14.92C294.647 14.92 292.823 15.896 292.823 17.576C292.823 19.24 294.647 20.216 297.655 20.216C300.647 20.216 302.471 19.24 302.471 17.576C302.471 15.896 300.647 14.92 297.655 14.92ZM297.655 15.96C299.831 15.96 301.159 16.552 301.159 17.576C301.159 18.584 299.831 19.176 297.655 19.176C295.463 19.176 294.151 18.584 294.151 17.576C294.151 16.552 295.463 15.96 297.655 15.96Z" fill="black" fill-opacity="0.8"/>
<circle cx="161" cy="13" r="13" fill="#F593B7"/>
<circle cx="252" cy="13" r="12" stroke="#F7F3F5" stroke-width="2"/>
<circle cx="161" cy="13" r="5" fill="white"/>
</svg>
