<svg width="390" height="407" viewBox="0 0 390 407" fill="none" xmlns="http://www.w3.org/2000/svg">
<path d="M42.392 18.264L42.04 20.36H43.96V21.768H41.768L41.192 25H39.672L40.232 21.768H38.616L38.056 25H36.552L37.096 21.768H35.336V20.36H37.368L37.736 18.264H35.864V16.856H38.008L38.568 13.592H40.104L39.528 16.856H41.16L41.72 13.592H43.24L42.664 16.856H44.456V18.264H42.392ZM38.904 20.36H40.52L40.856 18.264H39.24L38.904 20.36ZM55.3751 17V18.712H57.9991V17H55.3751ZM49.7751 21.464V23.176H50.7831C52.9111 23.176 54.3351 23.144 55.9991 22.856L55.8231 21.16C54.2071 21.432 52.8631 21.464 50.7831 21.464H49.7751ZM49.7751 13.24V22.088H51.7911V14.92H55.2791V13.24H49.7751ZM51.2151 17.224V18.856H54.7191V17.224H51.2151ZM60.0471 11.608V26.424H62.0791V11.608H60.0471ZM56.9911 11.864V25.768H58.9751V11.864H56.9911ZM65.4379 12.968V14.648H74.8299V12.968H65.4379ZM64.0779 22.76V24.488H77.4699V22.76H64.0779ZM73.7099 12.968V14.728C73.7099 16.728 73.7099 18.84 73.1659 21.688L75.2939 21.864C75.8219 18.824 75.8219 16.808 75.8219 14.728V12.968H73.7099Z" fill="black" fill-opacity="0.8"/>
<path d="M37.08 118L36.248 112.816H35.144V111.696H36.072L35.288 106.576H36.952L37.64 111.696H38.712L39.544 106.576H41.384L42.216 111.696H43.288L43.976 106.576H45.624L44.84 111.696H45.784V112.816H44.664L43.848 118H41.864L40.984 112.816H39.928L39.08 118H37.08ZM38.136 115.888L38.536 112.816H37.784L38.136 115.888ZM42.792 115.904L43.144 112.816H42.392L42.792 115.904ZM40.072 111.696H40.856L40.456 108.688L40.072 111.696ZM59.9401 104.592V119.408H62.0841V104.592H59.9401ZM61.5241 110.256V112H64.1321V110.256H61.5241ZM56.0521 106.128V106.496C56.0521 110.512 54.2121 113.232 50.3241 115.248L51.5081 116.864C56.4361 114.384 58.1321 110.576 58.1321 106.128H56.0521ZM51.1401 106.128V107.84H57.1401V106.128H51.1401ZM70.8189 105.536V106.592C70.8189 108.864 68.9789 110.784 65.3469 111.728L66.1469 113.392C70.5789 112.224 73.0429 109.52 73.0429 105.536H70.8189ZM66.1789 105.536V107.232H72.1949V105.536H66.1789ZM67.4909 114.032V115.696H75.4589V119.376H77.5869V114.032H67.4909ZM75.4589 104.608V113.408H77.5869V104.608H75.4589ZM72.3389 106.992V108.672H75.8109V106.992H72.3389ZM72.1949 110.144V111.84H75.6829V110.144H72.1949Z" fill="black" fill-opacity="0.8"/>
<path d="M35.656 203.376V205.104H49.064V203.376H35.656ZM37.272 200.672V202.352H47.544V200.672H37.272ZM37.272 197.008V201.504H39.384V198.704H47.464V197.008H37.272ZM42.312 205.984C39.112 205.984 37.16 206.96 37.16 208.704C37.16 210.448 39.112 211.424 42.312 211.424C45.512 211.424 47.448 210.448 47.448 208.704C47.448 206.96 45.512 205.984 42.312 205.984ZM42.312 207.584C44.296 207.584 45.304 207.952 45.304 208.704C45.304 209.472 44.296 209.808 42.312 209.808C40.328 209.808 39.32 209.472 39.32 208.704C39.32 207.952 40.328 207.584 42.312 207.584ZM50.3588 204.544V206.24H63.7828V204.544H50.3588ZM52.0068 196.896V198.512H60.0548V199.408H52.0228V202.512H54.1348V200.912H62.1508V196.896H52.0068ZM52.0228 201.872V203.488H62.4388V201.872H52.0228ZM56.0068 202.656V205.472H58.1348V202.656H56.0068ZM51.8468 207.072V208.752H60.1188V211.376H62.2468V207.072H51.8468ZM71.9095 205.664C68.8215 205.664 66.8855 206.736 66.8855 208.544C66.8855 210.368 68.8215 211.44 71.9095 211.44C74.9815 211.44 76.9175 210.368 76.9175 208.544C76.9175 206.736 74.9815 205.664 71.9095 205.664ZM71.9095 207.328C73.7975 207.328 74.8055 207.712 74.8055 208.544C74.8055 209.392 73.7975 209.792 71.9095 209.792C70.0215 209.792 68.9975 209.392 68.9975 208.544C68.9975 207.712 70.0215 207.328 71.9095 207.328ZM74.6135 196.608V205.328H76.7415V196.608H74.6135ZM76.1495 200.048V201.808H78.7095V200.048H76.1495ZM65.5095 197.552V204.512H72.6295V197.552H70.5175V199.376H67.6215V197.552H65.5095ZM67.6215 201.024H70.5175V202.848H67.6215V201.024ZM83.2682 197.28V198.704C83.2682 200.576 82.2283 202.496 79.7323 203.296L80.7723 204.976C83.6683 204.048 85.0283 201.504 85.0283 198.704V197.28H83.2682ZM83.7003 197.28V198.704C83.7003 201.456 85.0123 203.824 87.8443 204.72L88.8843 203.056C86.4683 202.32 85.4443 200.528 85.4443 198.704V197.28H83.7003ZM82.0043 206.096V207.792H89.9723V211.424H92.1163V206.096H82.0043ZM89.9723 196.608V205.44H92.1163V196.608H89.9723Z" fill="black" fill-opacity="0.8"/>
<path d="M42.712 51.136L42.264 53.472H44.392V54.704H42.024L41.384 58H40.072L40.712 54.704H38.648L38.04 58H36.76L37.352 54.704H35.384V53.472H37.592L38.056 51.136H35.976V49.904H38.28L38.904 46.576H40.232L39.592 49.904H41.688L42.312 46.576H43.592L42.952 49.904H44.936V51.136H42.712ZM38.888 53.472H40.952L41.416 51.136H39.352L38.888 53.472Z" fill="black" fill-opacity="0.4"/>
<path d="M37.256 151L36.344 145.752H35.16V144.68H36.152L35.288 139.576H36.728L37.528 144.68H38.792L39.704 139.576H41.352L42.28 144.68H43.528L44.312 139.576H45.736L44.888 144.68H45.88V145.752H44.712L43.848 151H42.168L41.208 145.752H39.88L38.936 151H37.256ZM38.12 149.08L38.6 145.752H37.704L38.12 149.08ZM42.968 149.128L43.384 145.752H42.472L42.968 149.128ZM40.04 144.68H41.032L40.52 141.368L40.04 144.68Z" fill="black" fill-opacity="0.4"/>
<path d="M37.256 243L36.344 237.752H35.16V236.68H36.152L35.288 231.576H36.728L37.528 236.68H38.792L39.704 231.576H41.352L42.28 236.68H43.528L44.312 231.576H45.736L44.888 236.68H45.88V237.752H44.712L43.848 243H42.168L41.208 237.752H39.88L38.936 243H37.256ZM38.12 241.08L38.6 237.752H37.704L38.12 241.08ZM42.968 241.128L43.384 237.752H42.472L42.968 241.128ZM40.04 236.68H41.032L40.52 233.368L40.04 236.68Z" fill="black" fill-opacity="0.4"/>
<line x1="35" y1="70.5" x2="355" y2="70.5" stroke="#C7C7C7"/>
<line x1="35" y1="163.5" x2="355" y2="163.5" stroke="#C7C7C7"/>
<line x1="35" y1="255.5" x2="355" y2="255.5" stroke="#C7C7C7"/>
<g filter="url(#filter0_d_281_244)">
<path d="M0 25C0 11.7452 10.7452 1 24 1H366C379.255 1 390 11.7452 390 25V382C390 395.255 379.255 406 366 406H24C10.7452 406 0 395.255 0 382V25Z" fill="white"/>
</g>
<path d="M55.944 36.592V51.456H58.072V36.592H55.944ZM53.352 41.776V43.488H56.44V41.776H53.352ZM49.064 38.944V40.256C49.064 43.008 47.896 45.84 45.416 47.008L46.664 48.688C49.432 47.328 50.744 43.872 50.744 40.256V38.944H49.064ZM49.56 38.944V40.256C49.56 43.76 50.84 47.072 53.624 48.384L54.856 46.72C52.376 45.6 51.224 42.864 51.224 40.256V38.944H49.56ZM46.024 38.032V39.744H54.264V38.032H46.024ZM65.9908 45.104V47.28H68.1028V45.104H65.9908ZM60.3588 43.904V45.584H73.7508V43.904H60.3588ZM61.8468 46.848V48.528H70.0068V51.408H72.1348V46.848H61.8468ZM65.9908 36.624V38.8H68.1028V36.624H65.9908ZM65.8628 38.96V39.264C65.8628 40.4 64.4868 41.568 60.9188 41.792L61.5588 43.376C65.5908 43.088 67.7348 41.52 67.7348 39.264V38.96H65.8628ZM66.3588 38.96V39.264C66.3588 41.52 68.4868 43.088 72.5348 43.376L73.1748 41.792C69.6068 41.568 68.2308 40.4 68.2308 39.264V38.96H66.3588ZM61.6388 37.952V39.6H72.4708V37.952H61.6388ZM77.7815 44V47.104H79.7975V44H77.7815ZM75.1575 48.528C77.0615 48.528 80.0695 48.464 82.4215 48.032L82.3095 46.48C80.0375 46.768 76.8855 46.816 74.9015 46.816L75.1575 48.528ZM85.9575 36.608V51.424H87.9895V36.608H85.9575ZM84.1655 42.496V44.208H86.5495V42.496H84.1655ZM82.8855 36.848V50.752H84.8695V36.848H82.8855ZM75.5095 42.608V44.304H81.9895V42.608H75.5095ZM75.5095 37.952V43.12H77.6055V39.648H81.8455V37.952H75.5095ZM93.3643 38.944V40.608C93.3643 43.12 92.1643 45.856 89.6842 46.96L90.8843 48.64C93.6683 47.376 95.0603 44.032 95.0603 40.608V38.944H93.3643ZM93.8443 38.944V40.608C93.8443 43.904 95.2203 47.056 98.0363 48.272L99.1883 46.592C96.7083 45.568 95.5243 43.008 95.5243 40.608V38.944H93.8443ZM90.2763 38.032V39.776H98.5803V38.032H90.2763ZM99.9563 36.608V51.424H102.1V36.608H99.9563Z" fill="black" fill-opacity="0.8"/>
<path d="M46.232 100.128V101.216H53.96V100.128H46.232ZM45.992 107.296C48.456 107.296 51.848 107.216 54.728 106.768L54.632 105.776C51.8 106.128 48.36 106.16 45.832 106.176L45.992 107.296ZM47.656 100.944V106.4H48.936V100.944H47.656ZM51.24 100.944V106.4H52.52V100.944H51.24ZM55.688 98.8V109.456H57.016V98.8H55.688ZM56.6 103.184V104.304H59.16V103.184H56.6ZM48.008 111.84V112.928H57.672V111.84H48.008ZM48.008 108.432V112.128H49.336V108.432H48.008ZM71.5268 98.784V113.248H72.8068V98.784H71.5268ZM69.2388 104.512V105.6H72.0068V104.512H69.2388ZM68.3268 99.088V112.528H69.5908V99.088H68.3268ZM61.0308 100.448V109.376H66.5508V100.448H61.0308ZM65.3028 101.504V108.32H62.2788V101.504H65.3028ZM76.9015 99.536V100.624H86.2135V99.536H76.9015ZM75.2375 104.864V105.952H88.3415V104.864H75.2375ZM85.3495 99.536V100.608C85.3495 101.808 85.3495 103.2 84.8695 105.184L86.1655 105.248C86.6455 103.248 86.6455 101.84 86.6455 100.608V99.536H85.3495ZM76.8375 107.92V113.056H86.6935V107.92H76.8375ZM85.3975 108.976V111.984H78.1335V108.976H85.3975ZM93.3802 99.696C91.4603 99.696 90.0843 101.088 90.0843 103.12C90.0843 105.12 91.4603 106.512 93.3802 106.512C95.2683 106.512 96.6603 105.12 96.6603 103.12C96.6603 101.088 95.2683 99.696 93.3802 99.696ZM93.3802 100.816C94.5643 100.816 95.4603 101.776 95.4603 103.12C95.4603 104.448 94.5643 105.408 93.3802 105.408C92.1803 105.408 91.3003 104.448 91.3003 103.12C91.3003 101.776 92.1803 100.816 93.3802 100.816ZM100.868 98.8V107.392H102.132V98.8H100.868ZM98.5323 102.496V103.6H101.268V102.496H98.5323ZM97.7803 99.056V107.312H99.0443V99.056H97.7803ZM92.4363 108.192V109.28H100.82V113.248H102.132V108.192H92.4363Z" fill="black" fill-opacity="0.8"/>
<path d="M298.093 103.216C298.093 103.728 297.992 104.176 297.789 104.56C297.597 104.933 297.32 105.237 296.957 105.472C296.594 105.707 296.178 105.877 295.709 105.984V106.048C296.626 106.155 297.309 106.443 297.757 106.912C298.216 107.371 298.445 107.979 298.445 108.736C298.445 109.397 298.285 109.989 297.965 110.512C297.656 111.024 297.17 111.429 296.509 111.728C295.858 112.016 295.021 112.16 293.997 112.16C293.389 112.16 292.824 112.112 292.301 112.016C291.778 111.92 291.282 111.76 290.813 111.536V110C291.293 110.245 291.805 110.432 292.349 110.56C292.904 110.688 293.432 110.752 293.933 110.752C294.904 110.752 295.602 110.571 296.029 110.208C296.456 109.835 296.669 109.317 296.669 108.656C296.669 108.229 296.557 107.883 296.333 107.616C296.109 107.339 295.768 107.136 295.309 107.008C294.85 106.869 294.28 106.8 293.597 106.8H292.557V105.408H293.613C294.264 105.408 294.792 105.328 295.197 105.168C295.602 104.997 295.901 104.763 296.093 104.464C296.285 104.165 296.381 103.824 296.381 103.44C296.381 102.928 296.21 102.533 295.869 102.256C295.538 101.968 295.058 101.824 294.429 101.824C294.045 101.824 293.688 101.867 293.357 101.952C293.037 102.037 292.744 102.149 292.477 102.288C292.21 102.427 291.949 102.581 291.693 102.752L290.861 101.584C291.149 101.371 291.469 101.173 291.821 100.992C292.184 100.811 292.584 100.672 293.021 100.576C293.469 100.469 293.954 100.416 294.477 100.416C295.661 100.416 296.557 100.677 297.165 101.2C297.784 101.712 298.093 102.384 298.093 103.216ZM307.713 106.272C307.713 107.2 307.639 108.027 307.489 108.752C307.351 109.477 307.127 110.096 306.817 110.608C306.519 111.109 306.119 111.493 305.617 111.76C305.127 112.027 304.535 112.16 303.841 112.16C302.967 112.16 302.247 111.925 301.681 111.456C301.116 110.987 300.695 110.315 300.417 109.44C300.14 108.555 300.001 107.499 300.001 106.272C300.001 105.035 300.124 103.979 300.369 103.104C300.625 102.229 301.036 101.563 301.601 101.104C302.167 100.635 302.913 100.4 303.841 100.4C304.716 100.4 305.436 100.635 306.001 101.104C306.577 101.563 307.004 102.229 307.281 103.104C307.569 103.979 307.713 105.035 307.713 106.272ZM301.697 106.272C301.697 107.264 301.767 108.091 301.905 108.752C302.044 109.413 302.268 109.909 302.577 110.24C302.897 110.571 303.319 110.736 303.841 110.736C304.364 110.736 304.78 110.576 305.089 110.256C305.409 109.925 305.639 109.429 305.777 108.768C305.927 108.096 306.001 107.264 306.001 106.272C306.001 105.28 305.927 104.459 305.777 103.808C305.639 103.147 305.409 102.651 305.089 102.32C304.78 101.989 304.364 101.824 303.841 101.824C303.319 101.824 302.897 101.989 302.577 102.32C302.268 102.651 302.044 103.147 301.905 103.808C301.767 104.459 301.697 105.28 301.697 106.272ZM311.654 110.32C311.558 110.693 311.435 111.099 311.286 111.536C311.136 111.973 310.976 112.405 310.806 112.832C310.635 113.269 310.459 113.68 310.278 114.064H309.046C309.152 113.648 309.254 113.205 309.35 112.736C309.456 112.277 309.552 111.824 309.638 111.376C309.723 110.928 309.792 110.517 309.846 110.144H311.542L311.654 110.32ZM321.245 106.272C321.245 107.2 321.17 108.027 321.021 108.752C320.882 109.477 320.658 110.096 320.349 110.608C320.05 111.109 319.65 111.493 319.149 111.76C318.658 112.027 318.066 112.16 317.373 112.16C316.498 112.16 315.778 111.925 315.213 111.456C314.647 110.987 314.226 110.315 313.949 109.44C313.671 108.555 313.533 107.499 313.533 106.272C313.533 105.035 313.655 103.979 313.901 103.104C314.157 102.229 314.567 101.563 315.133 101.104C315.698 100.635 316.445 100.4 317.373 100.4C318.247 100.4 318.967 100.635 319.533 101.104C320.109 101.563 320.535 102.229 320.812 103.104C321.101 103.979 321.245 105.035 321.245 106.272ZM315.229 106.272C315.229 107.264 315.298 108.091 315.437 108.752C315.575 109.413 315.799 109.909 316.109 110.24C316.429 110.571 316.85 110.736 317.373 110.736C317.895 110.736 318.311 110.576 318.621 110.256C318.941 109.925 319.17 109.429 319.309 108.768C319.458 108.096 319.533 107.264 319.533 106.272C319.533 105.28 319.458 104.459 319.309 103.808C319.17 103.147 318.941 102.651 318.621 102.32C318.311 101.989 317.895 101.824 317.373 101.824C316.85 101.824 316.429 101.989 316.109 102.32C315.799 102.651 315.575 103.147 315.437 103.808C315.298 104.459 315.229 105.28 315.229 106.272ZM330.401 106.272C330.401 107.2 330.326 108.027 330.177 108.752C330.038 109.477 329.814 110.096 329.505 110.608C329.206 111.109 328.806 111.493 328.305 111.76C327.814 112.027 327.222 112.16 326.529 112.16C325.654 112.16 324.934 111.925 324.369 111.456C323.803 110.987 323.382 110.315 323.105 109.44C322.827 108.555 322.689 107.499 322.689 106.272C322.689 105.035 322.811 103.979 323.057 103.104C323.313 102.229 323.723 101.563 324.289 101.104C324.854 100.635 325.601 100.4 326.529 100.4C327.403 100.4 328.123 100.635 328.689 101.104C329.265 101.563 329.691 102.229 329.969 103.104C330.257 103.979 330.401 105.035 330.401 106.272ZM324.385 106.272C324.385 107.264 324.454 108.091 324.593 108.752C324.731 109.413 324.955 109.909 325.265 110.24C325.585 110.571 326.006 110.736 326.529 110.736C327.051 110.736 327.467 110.576 327.777 110.256C328.097 109.925 328.326 109.429 328.465 108.768C328.614 108.096 328.689 107.264 328.689 106.272C328.689 105.28 328.614 104.459 328.465 103.808C328.326 103.147 328.097 102.651 327.777 102.32C327.467 101.989 327.051 101.824 326.529 101.824C326.006 101.824 325.585 101.989 325.265 102.32C324.955 102.651 324.731 103.147 324.593 103.808C324.454 104.459 324.385 105.28 324.385 106.272ZM339.557 106.272C339.557 107.2 339.482 108.027 339.333 108.752C339.194 109.477 338.97 110.096 338.661 110.608C338.362 111.109 337.962 111.493 337.461 111.76C336.97 112.027 336.378 112.16 335.685 112.16C334.81 112.16 334.09 111.925 333.525 111.456C332.96 110.987 332.538 110.315 332.261 109.44C331.984 108.555 331.845 107.499 331.845 106.272C331.845 105.035 331.968 103.979 332.213 103.104C332.469 102.229 332.88 101.563 333.445 101.104C334.01 100.635 334.757 100.4 335.685 100.4C336.56 100.4 337.28 100.635 337.845 101.104C338.421 101.563 338.848 102.229 339.125 103.104C339.413 103.979 339.557 105.035 339.557 106.272ZM333.541 106.272C333.541 107.264 333.61 108.091 333.749 108.752C333.888 109.413 334.112 109.909 334.421 110.24C334.741 110.571 335.162 110.736 335.685 110.736C336.208 110.736 336.624 110.576 336.933 110.256C337.253 109.925 337.482 109.429 337.621 108.768C337.77 108.096 337.845 107.264 337.845 106.272C337.845 105.28 337.77 104.459 337.621 103.808C337.482 103.147 337.253 102.651 336.933 102.32C336.624 101.989 336.208 101.824 335.685 101.824C335.162 101.824 334.741 101.989 334.421 102.32C334.112 102.651 333.888 103.147 333.749 103.808C333.61 104.459 333.541 105.28 333.541 106.272ZM345.177 106.064V109.28H346.505V106.064H345.177ZM351.593 98.784V109.792H352.921V98.784H351.593ZM343.049 111.84V112.928H353.273V111.84H343.049ZM343.049 108.72V112.144H344.377V108.72H343.049ZM341.177 106.56C343.801 106.56 347.305 106.512 350.425 106.016L350.329 105.04C347.257 105.44 343.673 105.472 341.001 105.472L341.177 106.56ZM348.649 107.328V108.304H351.929V107.328H348.649ZM345.705 99.376C343.577 99.376 342.137 100.368 342.137 101.888C342.137 103.424 343.577 104.416 345.705 104.416C347.817 104.416 349.257 103.424 349.257 101.888C349.257 100.368 347.817 99.376 345.705 99.376ZM345.705 100.368C347.049 100.368 347.993 100.96 347.993 101.888C347.993 102.816 347.049 103.408 345.705 103.408C344.345 103.408 343.401 102.816 343.401 101.888C343.401 100.96 344.345 100.368 345.705 100.368Z" fill="black" fill-opacity="0.8"/>
<path d="M56.376 139.768V154.264H57.688V139.768H56.376ZM53.256 145.048V146.136H56.76V145.048H53.256ZM49.464 141.848V144.008C49.464 146.584 47.752 149.32 45.672 150.344L46.456 151.4C48.744 150.216 50.536 147.128 50.536 144.008V141.848H49.464ZM49.736 141.848V144.008C49.736 146.984 51.496 149.96 53.784 151.096L54.568 150.056C52.472 149.064 50.792 146.424 50.792 144.008V141.848H49.736ZM46.2 141.256V142.36H54.072V141.256H46.2ZM66.3908 147.832V150.104H67.7028V147.832H66.3908ZM60.5028 147.064V148.136H73.5748V147.064H60.5028ZM61.9588 149.768V150.856H70.6308V154.2H71.9588V149.768H61.9588ZM66.3908 139.704V141.72H67.7028V139.704H66.3908ZM66.3268 141.896V142.136C66.3268 143.8 64.0868 144.984 61.2868 145.24L61.7028 146.248C64.8548 145.912 67.4948 144.52 67.4948 142.136V141.896H66.3268ZM66.5988 141.896V142.136C66.5988 144.52 69.2228 145.912 72.3908 146.248L72.8068 145.24C70.0068 144.984 67.7668 143.8 67.7668 142.136V141.896H66.5988ZM61.8468 141.192V142.264H72.2468V141.192H61.8468ZM76.9015 140.536V141.624H86.2135V140.536H76.9015ZM75.2375 145.864V146.952H88.3415V145.864H75.2375ZM85.3495 140.536V141.608C85.3495 142.808 85.3495 144.2 84.8695 146.184L86.1655 146.248C86.6455 144.248 86.6455 142.84 86.6455 141.608V140.536H85.3495ZM76.8375 148.92V154.056H86.6935V148.92H76.8375ZM85.3975 149.976V152.984H78.1335V149.976H85.3975ZM93.3802 140.696C91.4603 140.696 90.0843 142.088 90.0843 144.12C90.0843 146.12 91.4603 147.512 93.3802 147.512C95.2683 147.512 96.6603 146.12 96.6603 144.12C96.6603 142.088 95.2683 140.696 93.3802 140.696ZM93.3802 141.816C94.5643 141.816 95.4603 142.776 95.4603 144.12C95.4603 145.448 94.5643 146.408 93.3802 146.408C92.1803 146.408 91.3003 145.448 91.3003 144.12C91.3003 142.776 92.1803 141.816 93.3802 141.816ZM100.868 139.8V148.392H102.132V139.8H100.868ZM98.5323 143.496V144.6H101.268V143.496H98.5323ZM97.7803 140.056V148.312H99.0443V140.056H97.7803ZM92.4363 149.192V150.28H100.82V154.248H102.132V149.192H92.4363ZM108.511 149.712C108.511 149.056 108.571 148.416 108.691 147.792C108.819 147.168 109.015 146.572 109.279 146.004C109.543 145.436 109.875 144.912 110.275 144.432H111.415C111.047 144.928 110.735 145.464 110.479 146.04C110.231 146.616 110.043 147.212 109.915 147.828C109.787 148.444 109.723 149.068 109.723 149.7C109.723 150.316 109.787 150.928 109.915 151.536C110.043 152.144 110.231 152.728 110.479 153.288C110.727 153.856 111.035 154.392 111.403 154.896H110.275C109.875 154.424 109.543 153.908 109.279 153.348C109.015 152.796 108.819 152.212 108.691 151.596C108.571 150.98 108.511 150.352 108.511 149.712ZM116.234 153H114.974V147.312C114.974 147.112 114.974 146.928 114.974 146.76C114.982 146.584 114.99 146.416 114.998 146.256C115.006 146.088 115.014 145.928 115.022 145.776C114.918 145.88 114.81 145.98 114.698 146.076C114.586 146.172 114.458 146.284 114.314 146.412L113.378 147.168L112.73 146.352L115.178 144.432H116.234V153ZM124.961 148.704C124.961 149.4 124.905 150.02 124.793 150.564C124.689 151.108 124.521 151.572 124.289 151.956C124.065 152.332 123.765 152.62 123.389 152.82C123.021 153.02 122.577 153.12 122.057 153.12C121.401 153.12 120.861 152.944 120.437 152.592C120.013 152.24 119.697 151.736 119.489 151.08C119.281 150.416 119.177 149.624 119.177 148.704C119.177 147.776 119.269 146.984 119.453 146.328C119.645 145.672 119.953 145.172 120.377 144.828C120.801 144.476 121.361 144.3 122.057 144.3C122.713 144.3 123.253 144.476 123.677 144.828C124.109 145.172 124.429 145.672 124.637 146.328C124.853 146.984 124.961 147.776 124.961 148.704ZM120.449 148.704C120.449 149.448 120.501 150.068 120.605 150.564C120.709 151.06 120.877 151.432 121.109 151.68C121.349 151.928 121.665 152.052 122.057 152.052C122.449 152.052 122.761 151.932 122.993 151.692C123.233 151.444 123.405 151.072 123.509 150.576C123.621 150.072 123.677 149.448 123.677 148.704C123.677 147.96 123.621 147.344 123.509 146.856C123.405 146.36 123.233 145.988 122.993 145.74C122.761 145.492 122.449 145.368 122.057 145.368C121.665 145.368 121.349 145.492 121.109 145.74C120.877 145.988 120.709 146.36 120.605 146.856C120.501 147.344 120.449 147.96 120.449 148.704ZM127.856 144.312C128.472 144.312 128.936 144.548 129.248 145.02C129.568 145.484 129.728 146.14 129.728 146.988C129.728 147.836 129.576 148.5 129.272 148.98C128.976 149.452 128.504 149.688 127.856 149.688C127.464 149.688 127.128 149.58 126.848 149.364C126.576 149.148 126.372 148.84 126.236 148.44C126.1 148.032 126.032 147.548 126.032 146.988C126.032 146.14 126.176 145.484 126.464 145.02C126.76 144.548 127.224 144.312 127.856 144.312ZM127.856 145.2C127.592 145.2 127.396 145.352 127.268 145.656C127.14 145.952 127.076 146.396 127.076 146.988C127.076 147.588 127.14 148.04 127.268 148.344C127.396 148.648 127.592 148.8 127.856 148.8C128.136 148.8 128.344 148.652 128.48 148.356C128.616 148.052 128.684 147.596 128.684 146.988C128.684 146.396 128.616 145.952 128.48 145.656C128.344 145.352 128.136 145.2 127.856 145.2ZM133.52 144.432L128.768 153H127.7L132.452 144.432H133.52ZM133.328 147.744C133.736 147.744 134.076 147.852 134.348 148.068C134.628 148.276 134.84 148.58 134.984 148.98C135.128 149.372 135.2 149.852 135.2 150.42C135.2 151.268 135.048 151.932 134.744 152.412C134.44 152.884 133.968 153.12 133.328 153.12C132.928 153.12 132.592 153.012 132.32 152.796C132.048 152.58 131.84 152.272 131.696 151.872C131.56 151.464 131.492 150.98 131.492 150.42C131.492 149.572 131.636 148.916 131.924 148.452C132.22 147.98 132.688 147.744 133.328 147.744ZM133.328 148.632C133.056 148.632 132.856 148.78 132.728 149.076C132.608 149.372 132.548 149.82 132.548 150.42C132.548 151.02 132.608 151.472 132.728 151.776C132.856 152.072 133.056 152.22 133.328 152.22C133.608 152.22 133.812 152.072 133.94 151.776C134.076 151.48 134.144 151.028 134.144 150.42C134.144 149.82 134.076 149.372 133.94 149.076C133.812 148.78 133.608 148.632 133.328 148.632ZM138.987 149.712C138.987 150.352 138.923 150.98 138.795 151.596C138.675 152.212 138.483 152.796 138.219 153.348C137.963 153.908 137.631 154.424 137.223 154.896H136.095C136.463 154.392 136.771 153.856 137.019 153.288C137.267 152.728 137.451 152.144 137.571 151.536C137.699 150.928 137.763 150.316 137.763 149.7C137.763 149.068 137.699 148.444 137.571 147.828C137.451 147.212 137.267 146.616 137.019 146.04C136.771 145.464 136.459 144.928 136.083 144.432H137.223C137.631 144.912 137.963 145.436 138.219 146.004C138.483 146.572 138.675 147.168 138.795 147.792C138.923 148.416 138.987 149.056 138.987 149.712Z" fill="black" fill-opacity="0.8"/>
<path d="M307.249 144.216C307.249 144.728 307.148 145.176 306.945 145.56C306.753 145.933 306.476 146.237 306.113 146.472C305.751 146.707 305.335 146.877 304.865 146.984V147.048C305.783 147.155 306.465 147.443 306.913 147.912C307.372 148.371 307.601 148.979 307.601 149.736C307.601 150.397 307.441 150.989 307.121 151.512C306.812 152.024 306.327 152.429 305.665 152.728C305.015 153.016 304.177 153.16 303.153 153.16C302.545 153.16 301.98 153.112 301.457 153.016C300.935 152.92 300.439 152.76 299.969 152.536V151C300.449 151.245 300.961 151.432 301.505 151.56C302.06 151.688 302.588 151.752 303.089 151.752C304.06 151.752 304.759 151.571 305.185 151.208C305.612 150.835 305.825 150.317 305.825 149.656C305.825 149.229 305.713 148.883 305.489 148.616C305.265 148.339 304.924 148.136 304.465 148.008C304.007 147.869 303.436 147.8 302.753 147.8H301.713V146.408H302.769C303.42 146.408 303.948 146.328 304.353 146.168C304.759 145.997 305.057 145.763 305.249 145.464C305.441 145.165 305.537 144.824 305.537 144.44C305.537 143.928 305.367 143.533 305.025 143.256C304.695 142.968 304.215 142.824 303.585 142.824C303.201 142.824 302.844 142.867 302.513 142.952C302.193 143.037 301.9 143.149 301.633 143.288C301.367 143.427 301.105 143.581 300.849 143.752L300.017 142.584C300.305 142.371 300.625 142.173 300.977 141.992C301.34 141.811 301.74 141.672 302.177 141.576C302.625 141.469 303.111 141.416 303.633 141.416C304.817 141.416 305.713 141.677 306.321 142.2C306.94 142.712 307.249 143.384 307.249 144.216ZM311.654 151.32C311.558 151.693 311.435 152.099 311.286 152.536C311.136 152.973 310.976 153.405 310.806 153.832C310.635 154.269 310.459 154.68 310.278 155.064H309.046C309.152 154.648 309.254 154.205 309.35 153.736C309.456 153.277 309.552 152.824 309.638 152.376C309.723 151.928 309.792 151.517 309.846 151.144H311.542L311.654 151.32ZM321.245 147.272C321.245 148.2 321.17 149.027 321.021 149.752C320.882 150.477 320.658 151.096 320.349 151.608C320.05 152.109 319.65 152.493 319.149 152.76C318.658 153.027 318.066 153.16 317.373 153.16C316.498 153.16 315.778 152.925 315.213 152.456C314.647 151.987 314.226 151.315 313.949 150.44C313.671 149.555 313.533 148.499 313.533 147.272C313.533 146.035 313.655 144.979 313.901 144.104C314.157 143.229 314.567 142.563 315.133 142.104C315.698 141.635 316.445 141.4 317.373 141.4C318.247 141.4 318.967 141.635 319.533 142.104C320.109 142.563 320.535 143.229 320.812 144.104C321.101 144.979 321.245 146.035 321.245 147.272ZM315.229 147.272C315.229 148.264 315.298 149.091 315.437 149.752C315.575 150.413 315.799 150.909 316.109 151.24C316.429 151.571 316.85 151.736 317.373 151.736C317.895 151.736 318.311 151.576 318.621 151.256C318.941 150.925 319.17 150.429 319.309 149.768C319.458 149.096 319.533 148.264 319.533 147.272C319.533 146.28 319.458 145.459 319.309 144.808C319.17 144.147 318.941 143.651 318.621 143.32C318.311 142.989 317.895 142.824 317.373 142.824C316.85 142.824 316.429 142.989 316.109 143.32C315.799 143.651 315.575 144.147 315.437 144.808C315.298 145.459 315.229 146.28 315.229 147.272ZM330.401 147.272C330.401 148.2 330.326 149.027 330.177 149.752C330.038 150.477 329.814 151.096 329.505 151.608C329.206 152.109 328.806 152.493 328.305 152.76C327.814 153.027 327.222 153.16 326.529 153.16C325.654 153.16 324.934 152.925 324.369 152.456C323.803 151.987 323.382 151.315 323.105 150.44C322.827 149.555 322.689 148.499 322.689 147.272C322.689 146.035 322.811 144.979 323.057 144.104C323.313 143.229 323.723 142.563 324.289 142.104C324.854 141.635 325.601 141.4 326.529 141.4C327.403 141.4 328.123 141.635 328.689 142.104C329.265 142.563 329.691 143.229 329.969 144.104C330.257 144.979 330.401 146.035 330.401 147.272ZM324.385 147.272C324.385 148.264 324.454 149.091 324.593 149.752C324.731 150.413 324.955 150.909 325.265 151.24C325.585 151.571 326.006 151.736 326.529 151.736C327.051 151.736 327.467 151.576 327.777 151.256C328.097 150.925 328.326 150.429 328.465 149.768C328.614 149.096 328.689 148.264 328.689 147.272C328.689 146.28 328.614 145.459 328.465 144.808C328.326 144.147 328.097 143.651 327.777 143.32C327.467 142.989 327.051 142.824 326.529 142.824C326.006 142.824 325.585 142.989 325.265 143.32C324.955 143.651 324.731 144.147 324.593 144.808C324.454 145.459 324.385 146.28 324.385 147.272ZM339.557 147.272C339.557 148.2 339.482 149.027 339.333 149.752C339.194 150.477 338.97 151.096 338.661 151.608C338.362 152.109 337.962 152.493 337.461 152.76C336.97 153.027 336.378 153.16 335.685 153.16C334.81 153.16 334.09 152.925 333.525 152.456C332.96 151.987 332.538 151.315 332.261 150.44C331.984 149.555 331.845 148.499 331.845 147.272C331.845 146.035 331.968 144.979 332.213 144.104C332.469 143.229 332.88 142.563 333.445 142.104C334.01 141.635 334.757 141.4 335.685 141.4C336.56 141.4 337.28 141.635 337.845 142.104C338.421 142.563 338.848 143.229 339.125 144.104C339.413 144.979 339.557 146.035 339.557 147.272ZM333.541 147.272C333.541 148.264 333.61 149.091 333.749 149.752C333.888 150.413 334.112 150.909 334.421 151.24C334.741 151.571 335.162 151.736 335.685 151.736C336.208 151.736 336.624 151.576 336.933 151.256C337.253 150.925 337.482 150.429 337.621 149.768C337.77 149.096 337.845 148.264 337.845 147.272C337.845 146.28 337.77 145.459 337.621 144.808C337.482 144.147 337.253 143.651 336.933 143.32C336.624 142.989 336.208 142.824 335.685 142.824C335.162 142.824 334.741 142.989 334.421 143.32C334.112 143.651 333.888 144.147 333.749 144.808C333.61 145.459 333.541 146.28 333.541 147.272ZM345.177 147.064V150.28H346.505V147.064H345.177ZM351.593 139.784V150.792H352.921V139.784H351.593ZM343.049 152.84V153.928H353.273V152.84H343.049ZM343.049 149.72V153.144H344.377V149.72H343.049ZM341.177 147.56C343.801 147.56 347.305 147.512 350.425 147.016L350.329 146.04C347.257 146.44 343.673 146.472 341.001 146.472L341.177 147.56ZM348.649 148.328V149.304H351.929V148.328H348.649ZM345.705 140.376C343.577 140.376 342.137 141.368 342.137 142.888C342.137 144.424 343.577 145.416 345.705 145.416C347.817 145.416 349.257 144.424 349.257 142.888C349.257 141.368 347.817 140.376 345.705 140.376ZM345.705 141.368C347.049 141.368 347.993 141.96 347.993 142.888C347.993 143.816 347.049 144.408 345.705 144.408C344.345 144.408 343.401 143.816 343.401 142.888C343.401 141.96 344.345 141.368 345.705 141.368Z" fill="#F593B7" fill-opacity="0.8"/>
<path d="M46.232 183.128V184.216H53.96V183.128H46.232ZM45.992 190.296C48.456 190.296 51.848 190.216 54.728 189.768L54.632 188.776C51.8 189.128 48.36 189.16 45.832 189.176L45.992 190.296ZM47.656 183.944V189.4H48.936V183.944H47.656ZM51.24 183.944V189.4H52.52V183.944H51.24ZM55.688 181.8V192.456H57.016V181.8H55.688ZM56.6 186.184V187.304H59.16V186.184H56.6ZM48.008 194.84V195.928H57.672V194.84H48.008ZM48.008 191.432V195.128H49.336V191.432H48.008ZM71.5268 181.784V196.248H72.8068V181.784H71.5268ZM69.2388 187.512V188.6H72.0068V187.512H69.2388ZM68.3268 182.088V195.528H69.5908V182.088H68.3268ZM61.0308 183.448V192.376H66.5508V183.448H61.0308ZM65.3028 184.504V191.32H62.2788V184.504H65.3028ZM75.9095 183.432V184.504H87.5415V183.432H75.9095ZM75.2375 191.16V192.248H88.3415V191.16H75.2375ZM81.0935 192.04V196.264H82.4215V192.04H81.0935ZM81.7655 185.336C78.8055 185.336 77.0615 186.2 77.0615 187.752C77.0615 189.288 78.8055 190.168 81.7655 190.168C84.7095 190.168 86.4535 189.288 86.4535 187.752C86.4535 186.2 84.7095 185.336 81.7655 185.336ZM81.7655 186.36C83.8775 186.36 85.0935 186.856 85.0935 187.752C85.0935 188.648 83.8775 189.144 81.7655 189.144C79.6535 189.144 78.4375 188.648 78.4375 187.752C78.4375 186.856 79.6535 186.36 81.7655 186.36ZM81.0935 181.704V184.152H82.4215V181.704H81.0935ZM99.9525 182.296V183.096C99.9525 185.16 97.4085 186.888 94.7685 187.288L95.2965 188.36C98.3045 187.848 101.121 185.864 101.121 183.096V182.296H99.9525ZM100.193 182.296V183.096C100.193 185.832 103.025 187.848 106.001 188.36L106.529 187.288C103.921 186.888 101.345 185.112 101.345 183.096V182.296H100.193ZM99.9525 190.744V196.248H101.265V190.744H99.9525ZM94.1125 189.928V191.032H107.185V189.928H94.1125ZM109.423 188.856V189.944H110.463C113.359 189.944 114.799 189.896 116.591 189.576L116.447 188.504C114.719 188.808 113.311 188.856 110.463 188.856H109.423ZM109.391 182.6V183.672H114.303V185.64H109.423V189.56H110.735V186.664H115.631V182.6H109.391ZM119.407 181.8V190.728H120.719V181.8H119.407ZM116.591 184.056V185.128H119.711V184.056H116.591ZM116.591 187V188.088H119.711V187H116.591ZM115.967 191C112.975 191 111.151 191.96 111.151 193.656C111.151 195.352 112.975 196.328 115.967 196.328C118.959 196.328 120.783 195.352 120.783 193.656C120.783 191.96 118.959 191 115.967 191ZM115.967 192.024C118.159 192.024 119.471 192.616 119.471 193.656C119.471 194.696 118.159 195.304 115.967 195.304C113.791 195.304 112.463 194.696 112.463 193.656C112.463 192.616 113.791 192.024 115.967 192.024ZM125.214 182.536V183.624H134.526V182.536H125.214ZM123.55 187.864V188.952H136.654V187.864H123.55ZM133.662 182.536V183.608C133.662 184.808 133.662 186.2 133.182 188.184L134.478 188.248C134.958 186.248 134.958 184.84 134.958 183.608V182.536H133.662ZM125.15 190.92V196.056H135.006V190.92H125.15ZM133.71 191.976V194.984H126.446V191.976H133.71ZM141.693 182.696C139.773 182.696 138.397 184.088 138.397 186.12C138.397 188.12 139.773 189.512 141.693 189.512C143.581 189.512 144.973 188.12 144.973 186.12C144.973 184.088 143.581 182.696 141.693 182.696ZM141.693 183.816C142.877 183.816 143.773 184.776 143.773 186.12C143.773 187.448 142.877 188.408 141.693 188.408C140.493 188.408 139.613 187.448 139.613 186.12C139.613 184.776 140.493 183.816 141.693 183.816ZM149.181 181.8V190.392H150.445V181.8H149.181ZM146.845 185.496V186.6H149.581V185.496H146.845ZM146.093 182.056V190.312H147.357V182.056H146.093ZM140.749 191.192V192.28H149.133V196.248H150.445V191.192H140.749Z" fill="black" fill-opacity="0.8"/>
<path d="M298.541 195H290.861V193.688L293.805 190.696C294.381 190.109 294.861 189.603 295.245 189.176C295.629 188.739 295.917 188.323 296.109 187.928C296.301 187.523 296.397 187.085 296.397 186.616C296.397 186.029 296.226 185.592 295.885 185.304C295.544 185.005 295.101 184.856 294.557 184.856C294.034 184.856 293.565 184.957 293.149 185.16C292.733 185.352 292.301 185.624 291.853 185.976L290.941 184.84C291.25 184.573 291.581 184.333 291.933 184.12C292.296 183.907 292.696 183.736 293.133 183.608C293.581 183.48 294.072 183.416 294.605 183.416C295.33 183.416 295.954 183.544 296.477 183.8C297 184.045 297.4 184.397 297.677 184.856C297.965 185.315 298.109 185.853 298.109 186.472C298.109 186.931 298.04 187.363 297.901 187.768C297.762 188.163 297.56 188.552 297.293 188.936C297.037 189.32 296.722 189.709 296.349 190.104C295.976 190.499 295.565 190.915 295.117 191.352L292.989 193.416V193.496H298.541V195ZM301.345 195L305.905 185.08H299.905V183.576H307.729V184.792L303.185 195H301.345ZM311.654 193.32C311.558 193.693 311.435 194.099 311.286 194.536C311.136 194.973 310.976 195.405 310.806 195.832C310.635 196.269 310.459 196.68 310.278 197.064H309.046C309.152 196.648 309.254 196.205 309.35 195.736C309.456 195.277 309.552 194.824 309.638 194.376C309.723 193.928 309.792 193.517 309.846 193.144H311.542L311.654 193.32ZM321.245 189.272C321.245 190.2 321.17 191.027 321.021 191.752C320.882 192.477 320.658 193.096 320.349 193.608C320.05 194.109 319.65 194.493 319.149 194.76C318.658 195.027 318.066 195.16 317.373 195.16C316.498 195.16 315.778 194.925 315.213 194.456C314.647 193.987 314.226 193.315 313.949 192.44C313.671 191.555 313.533 190.499 313.533 189.272C313.533 188.035 313.655 186.979 313.901 186.104C314.157 185.229 314.567 184.563 315.133 184.104C315.698 183.635 316.445 183.4 317.373 183.4C318.247 183.4 318.967 183.635 319.533 184.104C320.109 184.563 320.535 185.229 320.812 186.104C321.101 186.979 321.245 188.035 321.245 189.272ZM315.229 189.272C315.229 190.264 315.298 191.091 315.437 191.752C315.575 192.413 315.799 192.909 316.109 193.24C316.429 193.571 316.85 193.736 317.373 193.736C317.895 193.736 318.311 193.576 318.621 193.256C318.941 192.925 319.17 192.429 319.309 191.768C319.458 191.096 319.533 190.264 319.533 189.272C319.533 188.28 319.458 187.459 319.309 186.808C319.17 186.147 318.941 185.651 318.621 185.32C318.311 184.989 317.895 184.824 317.373 184.824C316.85 184.824 316.429 184.989 316.109 185.32C315.799 185.651 315.575 186.147 315.437 186.808C315.298 187.459 315.229 188.28 315.229 189.272ZM330.401 189.272C330.401 190.2 330.326 191.027 330.177 191.752C330.038 192.477 329.814 193.096 329.505 193.608C329.206 194.109 328.806 194.493 328.305 194.76C327.814 195.027 327.222 195.16 326.529 195.16C325.654 195.16 324.934 194.925 324.369 194.456C323.803 193.987 323.382 193.315 323.105 192.44C322.827 191.555 322.689 190.499 322.689 189.272C322.689 188.035 322.811 186.979 323.057 186.104C323.313 185.229 323.723 184.563 324.289 184.104C324.854 183.635 325.601 183.4 326.529 183.4C327.403 183.4 328.123 183.635 328.689 184.104C329.265 184.563 329.691 185.229 329.969 186.104C330.257 186.979 330.401 188.035 330.401 189.272ZM324.385 189.272C324.385 190.264 324.454 191.091 324.593 191.752C324.731 192.413 324.955 192.909 325.265 193.24C325.585 193.571 326.006 193.736 326.529 193.736C327.051 193.736 327.467 193.576 327.777 193.256C328.097 192.925 328.326 192.429 328.465 191.768C328.614 191.096 328.689 190.264 328.689 189.272C328.689 188.28 328.614 187.459 328.465 186.808C328.326 186.147 328.097 185.651 327.777 185.32C327.467 184.989 327.051 184.824 326.529 184.824C326.006 184.824 325.585 184.989 325.265 185.32C324.955 185.651 324.731 186.147 324.593 186.808C324.454 187.459 324.385 188.28 324.385 189.272ZM339.557 189.272C339.557 190.2 339.482 191.027 339.333 191.752C339.194 192.477 338.97 193.096 338.661 193.608C338.362 194.109 337.962 194.493 337.461 194.76C336.97 195.027 336.378 195.16 335.685 195.16C334.81 195.16 334.09 194.925 333.525 194.456C332.96 193.987 332.538 193.315 332.261 192.44C331.984 191.555 331.845 190.499 331.845 189.272C331.845 188.035 331.968 186.979 332.213 186.104C332.469 185.229 332.88 184.563 333.445 184.104C334.01 183.635 334.757 183.4 335.685 183.4C336.56 183.4 337.28 183.635 337.845 184.104C338.421 184.563 338.848 185.229 339.125 186.104C339.413 186.979 339.557 188.035 339.557 189.272ZM333.541 189.272C333.541 190.264 333.61 191.091 333.749 191.752C333.888 192.413 334.112 192.909 334.421 193.24C334.741 193.571 335.162 193.736 335.685 193.736C336.208 193.736 336.624 193.576 336.933 193.256C337.253 192.925 337.482 192.429 337.621 191.768C337.77 191.096 337.845 190.264 337.845 189.272C337.845 188.28 337.77 187.459 337.621 186.808C337.482 186.147 337.253 185.651 336.933 185.32C336.624 184.989 336.208 184.824 335.685 184.824C335.162 184.824 334.741 184.989 334.421 185.32C334.112 185.651 333.888 186.147 333.749 186.808C333.61 187.459 333.541 188.28 333.541 189.272ZM345.177 189.064V192.28H346.505V189.064H345.177ZM351.593 181.784V192.792H352.921V181.784H351.593ZM343.049 194.84V195.928H353.273V194.84H343.049ZM343.049 191.72V195.144H344.377V191.72H343.049ZM341.177 189.56C343.801 189.56 347.305 189.512 350.425 189.016L350.329 188.04C347.257 188.44 343.673 188.472 341.001 188.472L341.177 189.56ZM348.649 190.328V191.304H351.929V190.328H348.649ZM345.705 182.376C343.577 182.376 342.137 183.368 342.137 184.888C342.137 186.424 343.577 187.416 345.705 187.416C347.817 187.416 349.257 186.424 349.257 184.888C349.257 183.368 347.817 182.376 345.705 182.376ZM345.705 183.368C347.049 183.368 347.993 183.96 347.993 184.888C347.993 185.816 347.049 186.408 345.705 186.408C344.345 186.408 343.401 185.816 343.401 184.888C343.401 183.96 344.345 183.368 345.705 183.368Z" fill="black" fill-opacity="0.8"/>
<line x1="35" y1="74.5" x2="355" y2="74.5" stroke="#C7C7C7"/>
<rect x="20" y="262" width="350" height="64" rx="32" fill="#F593B7"/>
<path d="M163.121 292.548V294.492H178.205V292.548H163.121ZM164.939 289.506V291.396H176.495V289.506H164.939ZM164.939 285.384V290.442H167.315V287.292H176.405V285.384H164.939ZM170.609 295.482C167.009 295.482 164.813 296.58 164.813 298.542C164.813 300.504 167.009 301.602 170.609 301.602C174.209 301.602 176.387 300.504 176.387 298.542C176.387 296.58 174.209 295.482 170.609 295.482ZM170.609 297.282C172.841 297.282 173.975 297.696 173.975 298.542C173.975 299.406 172.841 299.784 170.609 299.784C168.377 299.784 167.243 299.406 167.243 298.542C167.243 297.696 168.377 297.282 170.609 297.282ZM179.661 293.862V295.77H194.763V293.862H179.661ZM181.515 285.258V287.076H190.569V288.084H181.533V291.576H183.909V289.776H192.927V285.258H181.515ZM181.533 290.856V292.674H193.251V290.856H181.533ZM186.015 291.738V294.906H188.409V291.738H186.015ZM181.335 296.706V298.596H190.641V301.548H193.035V296.706H181.335ZM206.912 284.934V301.602H209.288V284.934H206.912ZM208.748 291.432V293.43H211.7V291.432H208.748ZM196.148 287.4V289.308H205.85V287.4H196.148ZM201.026 290.244C198.596 290.244 196.796 291.9 196.796 294.222C196.796 296.544 198.596 298.2 201.026 298.2C203.456 298.2 205.256 296.544 205.256 294.222C205.256 291.9 203.456 290.244 201.026 290.244ZM201.026 292.188C202.16 292.188 202.97 292.944 202.97 294.222C202.97 295.5 202.16 296.256 201.026 296.256C199.892 296.256 199.082 295.5 199.082 294.222C199.082 292.944 199.892 292.188 201.026 292.188ZM199.82 285.204V288.12H202.214V285.204H199.82ZM224.263 284.934V301.602H226.675V284.934H224.263ZM219.349 286.662V287.094C219.349 291.558 217.621 294.582 212.833 296.886L214.075 298.794C219.997 295.932 221.725 291.756 221.725 286.662H219.349ZM213.715 286.662V288.552H220.483V286.662H213.715Z" fill="white"/>
<path d="M43.532 235.076V245.948H44.516V235.076H43.532ZM41.192 239.036V239.852H43.82V239.036H41.192ZM38.348 236.636V238.256C38.348 240.188 37.064 242.24 35.504 243.008L36.092 243.8C37.808 242.912 39.152 240.596 39.152 238.256V236.636H38.348ZM38.552 236.636V238.256C38.552 240.488 39.872 242.72 41.588 243.572L42.176 242.792C40.604 242.048 39.344 240.068 39.344 238.256V236.636H38.552ZM35.9 236.192V237.02H41.804V236.192H35.9ZM51.0431 241.124V242.828H52.0271V241.124H51.0431ZM46.6271 240.548V241.352H56.4311V240.548H46.6271ZM47.7191 242.576V243.392H54.2231V245.9H55.2191V242.576H47.7191ZM51.0431 235.028V236.54H52.0271V235.028H51.0431ZM50.9951 236.672V236.852C50.9951 238.1 49.3151 238.988 47.2151 239.18L47.5271 239.936C49.8911 239.684 51.8711 238.64 51.8711 236.852V236.672H50.9951ZM51.1991 236.672V236.852C51.1991 238.64 53.1671 239.684 55.5431 239.936L55.8551 239.18C53.7551 238.988 52.0751 238.1 52.0751 236.852V236.672H51.1991ZM47.6351 236.144V236.948H55.4351V236.144H47.6351ZM59.9821 240.38V242.924H60.9301V240.38H59.9821ZM57.6781 243.596C59.1541 243.596 61.4461 243.548 63.2221 243.248L63.1621 242.504C61.4461 242.72 59.0581 242.768 57.5461 242.768L57.6781 243.596ZM65.8741 235.088V245.936H66.8341V235.088H65.8741ZM64.2301 239.6V240.416H66.1861V239.6H64.2301ZM63.6421 235.316V245.36H64.5781V235.316H63.6421ZM58.0981 239.756V240.572H62.7901V239.756H58.0981ZM58.0981 236.192V240.02H59.0821V237.008H62.6821V236.192H58.0981ZM71.5852 236.636V238.4C71.5852 240.272 70.2772 242.312 68.7052 243.056L69.2812 243.848C71.0092 242.996 72.3892 240.692 72.3892 238.4V236.636H71.5852ZM71.7772 236.636V238.4C71.7772 240.656 73.1692 242.768 74.9212 243.584L75.4852 242.792C73.8892 242.108 72.5812 240.236 72.5812 238.4V236.636H71.7772ZM69.0652 236.192V237.032H75.1252V236.192H69.0652ZM76.5892 235.088V245.936H77.5852V235.088H76.5892ZM87.2174 236.156V236.612C87.2174 238.04 85.3574 239.288 83.4494 239.564L83.8334 240.356C86.0174 239.984 88.0814 238.556 88.0814 236.612V236.156H87.2174ZM87.4694 236.156V236.612C87.4694 238.556 89.5214 239.984 91.7174 240.356L92.0894 239.564C90.1934 239.288 88.3214 238.04 88.3214 236.612V236.156H87.4694ZM87.2534 241.796V245.936H88.2374V241.796H87.2534ZM82.8734 241.268V242.084H92.6774V241.268H82.8734ZM83.7854 235.76V236.564H91.7294V235.76H83.7854ZM97.4285 235.868C95.7365 235.868 94.5125 236.912 94.5125 238.424C94.5125 239.948 95.7365 240.992 97.4285 240.992C99.1205 240.992 100.333 239.948 100.333 238.424C100.333 236.912 99.1205 235.868 97.4285 235.868ZM97.4285 236.732C98.5445 236.732 99.3605 237.416 99.3605 238.424C99.3605 239.432 98.5445 240.128 97.4285 240.128C96.3005 240.128 95.4845 239.432 95.4845 238.424C95.4845 237.416 96.3005 236.732 97.4285 236.732ZM101.749 235.076V245.948H102.745V235.076H101.749ZM94.1045 243.572C96.0365 243.572 98.6885 243.56 101.125 243.092L101.041 242.36C98.6765 242.732 95.9405 242.744 93.9605 242.744L94.1045 243.572ZM107.604 236.024V237.968C107.604 239.948 106.368 242.036 104.796 242.828L105.408 243.62C107.124 242.708 108.42 240.368 108.42 237.968V236.024H107.604ZM107.784 236.024V237.968C107.784 240.296 109.044 242.516 110.724 243.416L111.336 242.624C109.8 241.856 108.588 239.876 108.588 237.968V236.024H107.784ZM112.284 235.088V245.936H113.292V235.088H112.284ZM113.052 239.48V240.32H115.068V239.48H113.052ZM123.407 235.088V242.072H124.403V235.088H123.407ZM124.127 238.1V238.928H126.011V238.1H124.127ZM120.995 242.168C118.811 242.168 117.467 242.852 117.467 244.04C117.467 245.228 118.811 245.912 120.995 245.912C123.191 245.912 124.523 245.228 124.523 244.04C124.523 242.852 123.191 242.168 120.995 242.168ZM120.995 242.936C122.591 242.936 123.551 243.344 123.551 244.04C123.551 244.748 122.591 245.144 120.995 245.144C119.411 245.144 118.451 244.748 118.451 244.04C118.451 243.344 119.411 242.936 120.995 242.936ZM116.015 236.312V237.104H122.423V236.312H116.015ZM119.219 237.656C117.659 237.656 116.615 238.4 116.615 239.564C116.615 240.74 117.659 241.484 119.219 241.484C120.767 241.484 121.811 240.74 121.811 239.564C121.811 238.4 120.767 237.656 119.219 237.656ZM119.219 238.412C120.191 238.412 120.863 238.868 120.863 239.564C120.863 240.272 120.191 240.728 119.219 240.728C118.223 240.728 117.563 240.272 117.563 239.564C117.563 238.868 118.223 238.412 119.219 238.412ZM118.715 234.992V236.756H119.711V234.992H118.715Z" fill="black" fill-opacity="0.4"/>
<path d="M343 237L348.625 243L355 237" stroke="black" stroke-opacity="0.4"/>
<rect x="146" y="12" width="98" height="7" rx="3.5" fill="#D9D9D9"/>
<defs>
<filter id="filter0_d_281_244" x="-1" y="0" width="392" height="407" filterUnits="userSpaceOnUse" color-interpolation-filters="sRGB">
<feFlood flood-opacity="0" result="BackgroundImageFix"/>
<feColorMatrix in="SourceAlpha" type="matrix" values="0 0 0 0 0 0 0 0 0 0 0 0 0 0 0 0 0 0 127 0" result="hardAlpha"/>
<feOffset/>
<feGaussianBlur stdDeviation="0.5"/>
<feComposite in2="hardAlpha" operator="out"/>
<feColorMatrix type="matrix" values="0 0 0 0 0 0 0 0 0 0 0 0 0 0 0 0 0 0 0.25 0"/>
<feBlend mode="normal" in2="BackgroundImageFix" result="effect1_dropShadow_281_244"/>
<feBlend mode="normal" in="SourceGraphic" in2="effect1_dropShadow_281_244" result="shape"/>
</filter>
</defs>
</svg>
